HIERARCHY
ROOT hip
{
	OFFSET 0.000000 0.000000 0.000000 
	CHANNELS 6 Xposition Yposition Zposition Xrotation Zrotation Yrotation
	JOINT abdomen
	{
		OFFSET 0.000000 3.402643 0.000000 
		CHANNELS 3 Xrotation Zrotation Yrotation
		JOINT chest
		{
			OFFSET 0.000000 8.438565 -0.680529 
			CHANNELS 3 Xrotation Zrotation Yrotation
			JOINT neck
			{
				OFFSET 0.000000 10.207942 -0.272212 
				CHANNELS 3 Xrotation Zrotation Yrotation
				JOINT head
				{
					OFFSET 0.000000 3.130431 0.000000 
					CHANNELS 3 Xrotation Zrotation Yrotation
					End Site
					{
						OFFSET 0.000000 3.130435 0.000000 
					}
				}
			}
			JOINT lCollar
			{
				OFFSET 3.470700 6.669187 -0.816635 
				CHANNELS 3 Yrotation Zrotation Xrotation
				JOINT lShldr
				{
					OFFSET 3.198488 0.000000 0.000000 
					CHANNELS 3 Zrotation Yrotation Xrotation
					JOINT lForeArm
					{
						OFFSET 10.139888 0.000000 0.000000 
						CHANNELS 3 Yrotation Zrotation Xrotation
						JOINT lHand
						{
							OFFSET 8.370511 0.000000 0.000000 
							CHANNELS 3 Zrotation Yrotation Xrotation
							End Site
							{
								OFFSET 4.083176 0.000000 0.000000 
							}
						}
					}
				}
			}
			JOINT rCollar
			{
				OFFSET -3.470700 6.669187 -0.816635 
				CHANNELS 3 Yrotation Zrotation Xrotation
				JOINT rShldr
				{
					OFFSET -3.198488 0.000000 0.000000 
					CHANNELS 3 Zrotation Yrotation Xrotation
					JOINT rForeArm
					{
						OFFSET -10.139888 0.000000 0.000000 
						CHANNELS 3 Yrotation Zrotation Xrotation
						JOINT rHand
						{
							OFFSET -8.370511 0.000000 0.000000 
							CHANNELS 3 Zrotation Yrotation Xrotation
							End Site
							{
								OFFSET -4.083176 0.000000 0.000000 
							}
						}
					}
				}
			}
		}
	}
	JOINT lThigh
	{
		OFFSET 5.308129 -1.633274 1.361059 
		CHANNELS 3 Xrotation Zrotation Yrotation
		JOINT lShin
		{
			OFFSET -2.041588 -20.007561 0.000000 
			CHANNELS 3 Xrotation Zrotation Yrotation
			JOINT lFoot
			{
				OFFSET 0.000000 -19.190928 -1.224953 
				CHANNELS 3 Xrotation Yrotation Zrotation
				End Site
				{
					OFFSET 0.000000 -2.449906 4.627600 
				}
			}
		}
	}
	JOINT rThigh
	{
		OFFSET -5.308129 -1.633274 1.361059 
		CHANNELS 3 Xrotation Zrotation Yrotation
		JOINT rShin
		{
			OFFSET 2.041588 -20.007561 0.000000 
			CHANNELS 3 Xrotation Zrotation Yrotation
			JOINT rFoot
			{
				OFFSET 0.000000 -19.190928 -1.224953 
				CHANNELS 3 Xrotation Yrotation Zrotation
				End Site
				{
					OFFSET 0.000000 -2.449906 4.627600 
				}
			}
		}
	}
}
MOTION
Frames: 10
Frame Time: 0.016667
22.960661 51.159950 -1.270864 -5.594937 -5.813673 7.184678 26.915237 11.454771 4.095629 3.322042 0.664014 -0.878860 -9.688050 -0.528143 0.099659 6.564767 -3.248757 2.542727 -15.547489 -12.190437 -0.646824 -70.139664 12.233420 -28.870464 -28.101154 -5.000000 13.482251 -16.029015 4.727507 -1.548362 14.794456 11.393387 -0.594300 62.095024 -11.681852 -22.959187 32.434082 5.000000 10.832231 7.140611 -28.014891 14.332953 -1.434436 23.166973 -1.709720 23.944094 -4.385221 -2.136313 -15.277685 5.251467 -8.280156 8.328706 -19.852798 -12.569901 13.495627 2.778574 0.733992 5.318182 -9.663554 12.509033 
23.448639 51.372677 -1.303209 -5.580057 -6.373802 6.603066 27.076654 11.578985 4.187067 3.406094 0.849526 -1.035213 -9.629094 -0.317178 0.057865 6.593770 -3.267373 2.875329 -15.550735 -11.793221 -0.614948 -70.092400 12.403797 -28.806698 -27.929871 -5.000000 13.186352 -15.607264 4.473725 -2.359029 14.636867 11.266609 -0.587748 62.440353 -11.187661 -22.684454 32.091038 5.000000 10.387813 6.536355 -27.625364 15.653273 -0.409101 22.948885 -0.798851 22.564571 -4.274273 -1.949430 -14.810111 5.175143 -7.659261 7.577498 -18.750002 -11.800807 14.231735 3.208072 0.894462 3.748341 -8.971268 13.225794 
23.888279 51.573219 -1.328131 -5.555443 -6.847042 6.028467 27.162458 11.593824 4.187184 3.518552 1.025256 -1.230495 -9.580090 -0.096557 0.014609 6.686985 -3.285646 3.276736 -15.478361 -11.422643 -0.593878 -69.970039 12.564955 -28.712080 -27.659185 -5.000000 12.850739 -15.111122 4.347183 -3.096601 14.431075 11.198344 -0.584218 62.681007 -10.642778 -22.336721 31.738653 5.000000 9.700483 5.240177 -27.246050 16.218285 0.762129 22.700804 0.225166 20.860140 -4.136199 -1.756087 -14.240559 5.001518 -7.148360 6.860867 -17.562002 -10.823137 14.922873 3.676844 1.100564 2.209117 -8.488325 14.031547 
24.327919 51.773766 -1.353053 -5.531424 -7.310738 5.463960 27.239141 11.617748 4.190464 3.630231 1.200968 -1.416193 -9.531297 0.133719 -0.030108 6.780002 -3.293962 3.687333 -15.398197 -11.049471 -0.584020 -69.845688 12.713264 -28.613451 -27.396652 -5.000000 12.494974 -14.624434 4.245780 -3.830286 14.225186 11.120328 -0.580183 62.922081 -10.097329 -21.975876 31.369453 5.000000 9.008451 3.950566 -26.847788 16.780828 1.934044 22.429340 1.232567 19.174620 -4.000250 -1.539438 -13.647266 4.839051 -6.621732 6.178063 -16.381374 -9.866004 15.626009 4.155609 1.333810 0.691831 -8.026361 14.848721 
24.689171 51.911541 -1.374314 -5.473544 -7.461345 5.061885 27.174446 11.379510 4.009713 3.644864 1.298547 -1.611465 -9.316720 0.373652 -0.076286 7.014118 -3.234572 3.931640 -15.512466 -10.766640 -0.569432 -69.557213 12.965691 -28.489620 -27.056093 -5.000000 12.084219 -14.306516 4.419518 -4.325495 14.140084 11.205711 -0.594011 63.089638 -9.928060 -21.945993 31.311346 5.000000 7.851578 2.853817 -26.717831 16.080637 2.937858 22.055803 2.001795 17.541004 -4.066274 -1.417384 -13.064328 4.674621 -6.413395 5.789320 -15.203434 -10.216637 16.022478 4.069161 1.313756 -0.453855 -7.261456 15.450055 
25.050421 52.049328 -1.395576 -5.411461 -7.602139 4.650165 27.129997 11.140810 3.831820 3.659032 1.396109 -1.797194 -9.092612 0.613584 -0.122461 7.257961 -3.175118 4.185701 -15.636483 -10.474055 -0.554326 -69.259247 13.212740 -28.367498 -26.711704 -5.000000 11.678533 -13.992538 4.599211 -4.819288 14.062790 11.283741 -0.599957 63.255394 -9.754700 -21.906767 31.238642 5.000000 6.693494 1.749581 -26.608007 15.376614 3.953511 21.665178 2.787163 15.888005 -4.120682 -1.329259 -12.419275 4.530777 -6.227216 5.388900 -14.030155 -10.565658 16.425499 3.991664 1.275498 -1.562084 -6.480907 16.066242 
25.383913 52.153954 -1.411677 -5.375157 -7.624568 4.364296 27.038349 10.836143 3.611553 3.615888 1.464390 -1.953408 -8.790391 0.826009 -0.154597 7.515725 -3.145300 4.332502 -15.829507 -10.239970 -0.540491 -68.929565 13.474833 -28.213274 -26.365509 -5.000000 11.175465 -13.766643 4.806915 -5.065670 14.032323 11.354378 -0.592285 63.405193 -9.764535 -22.029963 31.219679 5.000000 5.661081 0.971158 -26.641779 14.478459 4.784801 21.239300 3.280178 14.535839 -4.248546 -1.271461 -12.064276 4.431411 -6.011989 5.201357 -12.983195 -10.968000 16.549757 3.932503 1.277385 -2.555164 -6.069873 16.404909 
25.689650 52.225445 -1.422616 -5.353479 -7.519177 4.186203 26.921490 10.483264 3.360429 3.525740 1.493639 -2.070572 -8.410071 1.009467 -0.182349 7.808038 -3.125663 4.371508 -16.111029 -10.064384 -0.531433 -68.563850 13.744236 -28.008665 -26.024754 -5.000000 10.580482 -13.644380 5.027048 -5.064947 14.052475 11.412891 -0.595308 63.544418 -9.961710 -22.292622 31.248806 4.521406 4.733611 0.545570 -26.829706 13.346886 5.418937 20.779692 3.451766 13.430404 -4.481958 -1.230399 -11.799550 4.458999 -5.818342 5.181175 -12.044130 -11.382608 16.455381 3.862560 1.262091 -3.378644 -6.035763 16.461739 
25.995390 52.296932 -1.433555 -5.331779 -7.403925 4.006855 26.796295 10.111408 3.101970 3.435272 1.522878 -2.207521 -8.039439 1.204042 -0.201906 8.090612 -3.106026 4.410514 -16.382723 -9.879048 -0.521868 -68.189598 14.019853 -27.810707 -25.680866 -5.000000 9.972136 -13.512131 5.259826 -5.054276 14.072737 11.481157 -0.600779 63.686035 -10.153498 -22.570822 31.269323 3.945592 3.806093 0.109743 -27.035347 12.227247 6.033827 20.310999 3.614770 12.351488 -4.659155 -1.210714 -11.535991 4.472178 -5.654149 5.183767 -11.121399 -11.819264 16.355709 3.815561 1.248448 -4.242208 -5.974930 16.497839 
26.256830 52.322994 -1.425005 -5.363309 -7.161718 3.848181 26.641203 9.752542 2.924406 3.416294 1.483816 -2.217281 -7.707371 1.253782 -0.199555 8.306830 -3.115926 4.371509 -16.576952 -9.761990 -0.515822 -67.889755 14.115744 -27.588171 -25.497181 -5.000000 9.213531 -13.351981 5.549638 -4.585192 14.171680 11.420253 -0.607027 63.815277 -10.505975 -22.979443 31.246159 3.796565 3.580828 -0.012448 -27.471682 11.622383 6.500344 19.758205 3.567233 11.687302 -4.854096 -1.174465 -11.232140 4.629790 -5.376051 5.466074 -10.495128 -11.566115 15.734275 3.892141 1.242270 -4.950246 -6.291214 16.461433 
